<?xml version="1.0" encoding="UTF-8"?>
<svg version="1.1" xmlns="http://www.w3.org/2000/svg" width="32" height="32">
<path d="M0 0 C10.56 0 21.12 0 32 0 C32 10.56 32 21.12 32 32 C21.44 32 10.88 32 0 32 C0 21.44 0 10.88 0 0 Z " fill="#EFEFEF" transform="translate(0,0)"/>
<path d="M0 0 C3.5 0.125 3.5 0.125 4.5 1.125 C4.54080783 3.12458364 4.54254356 5.12545254 4.5 7.125 C1.28548731 8.73225635 -1.93612536 8.18248185 -5.5 8.125 C-5.5 10.765 -5.5 13.405 -5.5 16.125 C-3.85 16.455 -2.2 16.785 -0.5 17.125 C-0.17 15.475 0.16 13.825 0.5 12.125 C1.49 12.455 2.48 12.785 3.5 13.125 C4.1875 15.1875 4.1875 15.1875 4.5 17.125 C5.49 16.465 6.48 15.805 7.5 15.125 C7.02492969 19.40063279 4.54697466 21.29060497 1.5 24.125 C0.860625 24.888125 0.22125 25.65125 -0.4375 26.4375 C-2.5 28.125 -2.5 28.125 -5.625 28.5 C-8.5 28.125 -8.5 28.125 -10.5 26.125 C-10.72705078 23.69482422 -10.72705078 23.69482422 -10.6953125 20.6796875 C-10.68886719 19.60332031 -10.68242187 18.52695312 -10.67578125 17.41796875 C-10.65902344 16.29003906 -10.64226563 15.16210938 -10.625 14 C-10.61597656 12.86433594 -10.60695313 11.72867187 -10.59765625 10.55859375 C-10.57403098 7.74718701 -10.54109013 4.93619702 -10.5 2.125 C-9.530625 1.980625 -8.56125 1.83625 -7.5625 1.6875 C-3.87372318 1.00996956 -3.89099877 0.13896424 0 0 Z " fill="#383838" transform="translate(10.5,1.875)"/>
<path d="M0 0 C0.91007812 0.00902344 1.82015625 0.01804688 2.7578125 0.02734375 C3.45648438 0.03894531 4.15515625 0.05054688 4.875 0.0625 C5.1108396 5.84057024 4.74283046 10.57574804 2.875 16.0625 C4.525 15.4025 6.175 14.7425 7.875 14.0625 C7.125 16 7.125 16 5.875 18.0625 C3.75 18.8125 3.75 18.8125 1.875 19.0625 C1.771875 19.825625 1.66875 20.58875 1.5625 21.375 C0.79891959 24.35990522 0.46961433 25.41924426 -2.125 27.0625 C-5.6875 27.375 -5.6875 27.375 -9.125 27.0625 C-9.785 26.4025 -10.445 25.7425 -11.125 25.0625 C-11.125 24.0725 -11.125 23.0825 -11.125 22.0625 C-9.8875 21.7325 -8.65 21.4025 -7.375 21.0625 C-4.87535249 19.87472423 -3.47896842 18.86990645 -2.35351562 16.30273438 C-0.88786478 11.6417006 0.0255611 6.86853591 0.875 2.0625 C-1.765 2.3925 -4.405 2.7225 -7.125 3.0625 C-7.125 2.4025 -7.125 1.7425 -7.125 1.0625 C-4.60024538 -0.19987731 -2.81299534 -0.03606404 0 0 Z " fill="#121212" transform="translate(24.125,2.9375)"/>
<path d="M0 0 C0 4.29 0 8.58 0 13 C-4.62 13 -9.24 13 -14 13 C-12.35 11.68 -10.7 10.36 -9 9 C-8.505 7.989375 -8.01 6.97875 -7.5 5.9375 C-5.99521597 2.99063127 -3.70682375 0 0 0 Z " fill="#FBFBFB" transform="translate(32,19)"/>
<path d="M0 0 C0.99 0.33 1.98 0.66 3 1 C3.6875 3.0625 3.6875 3.0625 4 5 C4.99 4.34 5.98 3.68 7 3 C6.52492969 7.27563279 4.04697466 9.16560497 1 12 C0.360625 12.763125 -0.27875 13.52625 -0.9375 14.3125 C-3.69156202 16.56582347 -5.54031142 16.31451714 -9 16 C-9.33 14.68 -9.66 13.36 -10 12 C-9.67 12.66 -9.34 13.32 -9 14 C-6.58414426 13.96906827 -6.58414426 13.96906827 -4 13 C-2.14083176 10.03292954 -2.14083176 10.03292954 -1 7 C-1.66 6.67 -2.32 6.34 -3 6 C-2.01 4.02 -1.02 2.04 0 0 Z " fill="#0D0D0D" transform="translate(11,14)"/>
<path d="M0 0 C0.99 0.66 1.98 1.32 3 2 C4.65549531 2.38499891 6.3222433 2.72793135 8 3 C6 5 6 5 4.12060547 5.22705078 C3.37697754 5.21657715 2.63334961 5.20610352 1.8671875 5.1953125 C1.06152344 5.18886719 0.25585938 5.18242188 -0.57421875 5.17578125 C-1.41597656 5.15902344 -2.25773438 5.14226563 -3.125 5.125 C-4.39923828 5.11146484 -4.39923828 5.11146484 -5.69921875 5.09765625 C-7.79959884 5.07405647 -9.89983444 5.03818483 -12 5 C-11.67 3.68 -11.34 2.36 -11 1 C-10.67 1.33 -10.34 1.66 -10 2 C-6.05163095 2.2632246 -3.39620731 2.08997373 0 0 Z " fill="#F4F4F4" transform="translate(12,27)"/>
<path d="M0 0 C4.455 0.99 4.455 0.99 9 2 C8.34 3.98 7.68 5.96 7 8 C4.69 8 2.38 8 0 8 C0 5.36 0 2.72 0 0 Z " fill="#4D4D4D" transform="translate(0,20)"/>
<path d="M0 0 C1.4370809 -0.05422947 2.87475462 -0.09289723 4.3125 -0.125 C5.11300781 -0.14820312 5.91351563 -0.17140625 6.73828125 -0.1953125 C9 0 9 0 12 2 C4.52 4.55 4.52 4.55 2 5 C1.34 4.67 0.68 4.34 0 4 C0 2.68 0 1.36 0 0 Z " fill="#F7F7F7" transform="translate(0,0)"/>
<path d="M0 0 C1.67542976 0.28604898 3.34385343 0.61781233 5 1 C5 2.98 5 4.96 5 7 C2.04335481 8.4783226 -0.74229737 8.06032783 -4 8 C-4 7.67 -4 7.34 -4 7 C-2.35 6.67 -0.7 6.34 1 6 C1.33 4.68 1.66 3.36 2 2 C1.01 1.67 0.02 1.34 -1 1 C-0.67 0.67 -0.34 0.34 0 0 Z " fill="#0D0D0D" transform="translate(10,2)"/>
<path d="M0 0 C0.66 0.33 1.32 0.66 2 1 C4.09821215 0.60061233 4.09821215 0.60061233 6 0 C5.67 1.32 5.34 2.64 5 4 C4.01 4 3.02 4 2 4 C2 4.66 2 5.32 2 6 C0.68 5.34 -0.64 4.68 -2 4 C-2 3.01 -2 2.02 -2 1 C-1.34 0.67 -0.68 0.34 0 0 Z " fill="#7A7A7A" transform="translate(15,24)"/>
<path d="M0 0 C4.455 0.99 4.455 0.99 9 2 C5.81237635 4.12508244 3.73487777 4.5020163 0 5 C0 3.35 0 1.7 0 0 Z " fill="#DCDCDC" transform="translate(0,20)"/>
</svg>
